<svg width="244" height="33" viewBox="0 0 244 33" fill="none" xmlns="http://www.w3.org/2000/svg">
<path d="M32.7344 5.14062L33.0969 4.79625C33.091 4.79005 33.0849 4.78401 33.0788 4.77812L32.7344 5.14062ZM20.0312 10.5312V10.0312C19.7551 10.0312 19.5312 10.2551 19.5312 10.5312H20.0312ZM20.0312 29.5156L20.5288 29.5654C20.5304 29.5488 20.5312 29.5322 20.5312 29.5156H20.0312ZM16.9375 32.5625V33.0625C16.9514 33.0625 16.9652 33.0619 16.979 33.0608L16.9375 32.5625ZM14.6406 31.7188L14.2962 32.0812C14.3024 32.0871 14.3088 32.0928 14.3152 32.0984L14.6406 31.7188ZM13.7031 10.5312H14.2031C14.2031 10.2551 13.9793 10.0312 13.7031 10.0312V10.5312ZM1 9.59375L1.3625 9.24937C1.35661 9.24318 1.35057 9.23714 1.34437 9.23125L1 9.59375ZM0.5625 7.39062C0.5625 6.64201 0.811004 6.03673 1.30668 5.54105L0.599572 4.83395C-0.0922539 5.52577 -0.4375 6.38924 -0.4375 7.39062H0.5625ZM1.30668 5.54105C1.83898 5.00875 2.46224 4.75 3.20312 4.75V3.75C2.19401 3.75 1.31727 4.11625 0.599572 4.83395L1.30668 5.54105ZM3.20312 4.75H30.4844V3.75H3.20312V4.75ZM30.4844 4.75C31.2333 4.75 31.8595 4.99912 32.39 5.50313L33.0788 4.77812C32.3593 4.09463 31.4854 3.75 30.4844 3.75V4.75ZM32.3719 5.485C32.8759 6.01553 33.125 6.64166 33.125 7.39062H34.125C34.125 6.38959 33.7804 5.51572 33.0969 4.79625L32.3719 5.485ZM33.125 7.39062C33.125 8.13151 32.8662 8.75477 32.3339 9.28707L33.0411 9.99418C33.7588 9.27648 34.125 8.39974 34.125 7.39062H33.125ZM32.3339 9.28707C31.8383 9.78275 31.233 10.0312 30.4844 10.0312V11.0312C31.4858 11.0312 32.3492 10.686 33.0411 9.99418L32.3339 9.28707ZM30.4844 10.0312H20.0312V11.0312H30.4844V10.0312ZM19.5312 10.5312V29.5156H20.5312V10.5312H19.5312ZM19.5337 29.4659C19.448 30.3228 19.1765 30.9234 18.7663 31.3274C18.3563 31.7312 17.7524 31.9929 16.896 32.0642L16.979 33.0608C17.9976 32.9759 18.8468 32.6516 19.468 32.0398C20.0892 31.4281 20.427 30.5835 20.5288 29.5654L19.5337 29.4659ZM16.9375 32.0625C16.1802 32.0625 15.5304 31.8229 14.966 31.3391L14.3152 32.0984C15.0633 32.7396 15.9448 33.0625 16.9375 33.0625V32.0625ZM14.985 31.3563C14.461 30.8585 14.2031 30.2559 14.2031 29.5156H13.2031C13.2031 30.5254 13.5702 31.3915 14.2962 32.0812L14.985 31.3563ZM14.2031 29.5156V10.5312H13.2031V29.5156H14.2031ZM13.7031 10.0312H3.20312V11.0312H13.7031V10.0312ZM3.20312 10.0312C2.46285 10.0312 1.86026 9.77333 1.3625 9.24937L0.6375 9.93813C1.32724 10.6642 2.1934 11.0312 3.20312 11.0312V10.0312ZM1.34437 9.23125C0.820415 8.73349 0.5625 8.1309 0.5625 7.39062H-0.4375C-0.4375 8.40035 -0.0704147 9.26651 0.655625 9.95625L1.34437 9.23125ZM67.63 29.4219H67.13C67.13 29.4385 67.1308 29.4551 67.1325 29.4716L67.63 29.4219ZM66.4113 16.9062L66.4305 16.4066C66.4241 16.4064 66.4177 16.4062 66.4113 16.4062V16.9062ZM50.005 16.9062V16.4062C49.9962 16.4062 49.9875 16.4065 49.9787 16.4069L50.005 16.9062ZM48.4581 17.7031L48.8237 18.0443C48.8273 18.0404 48.8309 18.0364 48.8344 18.0324L48.4581 17.7031ZM47.4738 19.3906L46.9994 19.2325C46.9978 19.2373 46.9963 19.2421 46.9948 19.247L47.4738 19.3906ZM47.4738 23.2344L46.993 23.3717C46.9957 23.3811 46.9986 23.3904 47.0018 23.3996L47.4738 23.2344ZM48.4581 24.9219L48.0818 25.2511C48.0854 25.2552 48.0889 25.2591 48.0926 25.263L48.4581 24.9219ZM64.2081 26.5625L63.8456 26.9069C63.8515 26.9131 63.8576 26.9191 63.8638 26.925L64.2081 26.5625ZM64.2081 30.9688L63.8638 30.6063C63.8576 30.6121 63.8515 30.6182 63.8456 30.6244L64.2081 30.9688ZM50.1925 31.9062L50.1854 32.4062H50.1925V31.9062ZM44.755 30.0781L44.4274 30.4561L44.4366 30.4636L44.755 30.0781ZM41.7081 26L41.2418 26.1808L41.2466 26.1923L41.7081 26ZM41.755 16.6719L42.2166 16.8642L42.2179 16.8608L41.755 16.6719ZM44.8019 12.5938L45.1245 12.9758L45.1293 12.9716L44.8019 12.5938ZM51.0363 10.625V10.125C51.0306 10.125 51.0249 10.1251 51.0192 10.1253L51.0363 10.625ZM72.9738 11.5156L72.6292 11.8783L72.6393 11.8873L72.9738 11.5156ZM73.9581 13.6719H74.4581C74.4581 13.6659 74.458 13.66 74.4578 13.654L73.9581 13.6719ZM72.9738 31.625L73.3082 31.9966L73.3092 31.9958L72.9738 31.625ZM70.7238 32.4688L70.6822 32.967C70.696 32.9682 70.7099 32.9688 70.7238 32.9688V32.4688ZM68.13 29.4219V18.125H67.13V29.4219H68.13ZM68.13 18.125C68.13 17.6507 68.0055 17.2074 67.6789 16.8808C67.3556 16.5575 66.9104 16.4251 66.4305 16.4066L66.392 17.4059C66.7246 17.4187 66.8888 17.505 66.9718 17.5879C67.0514 17.6676 67.13 17.818 67.13 18.125H68.13ZM66.4113 16.4062H50.005V17.4062H66.4113V16.4062ZM49.9787 16.4069C49.2337 16.4462 48.5968 16.7854 48.0818 17.3739L48.8344 18.0324C49.1945 17.6209 49.5888 17.4288 50.0313 17.4056L49.9787 16.4069ZM48.0926 17.362C47.6023 17.8873 47.239 18.5136 46.9994 19.2325L47.9481 19.5487C48.146 18.9552 48.4389 18.4565 48.8237 18.0443L48.0926 17.362ZM46.9948 19.247C46.7933 19.9188 46.6925 20.6079 46.6925 21.3125H47.6925C47.6925 20.7046 47.7792 20.1124 47.9527 19.5343L46.9948 19.247ZM46.6925 21.3125C46.6925 21.988 46.7939 22.6749 46.993 23.3717L47.9545 23.097C47.7786 22.4814 47.6925 21.887 47.6925 21.3125H46.6925ZM47.0018 23.3996C47.2417 24.0851 47.6024 24.7032 48.0818 25.2511L48.8344 24.5926C48.4388 24.1405 48.1433 23.6337 47.9457 23.0692L47.0018 23.3996ZM48.0926 25.263C48.6162 25.8241 49.2608 26.125 50.005 26.125V25.125C49.5617 25.125 49.175 24.9572 48.8237 24.5807L48.0926 25.263ZM50.005 26.125H62.005V25.125H50.005V26.125ZM62.005 26.125C62.7453 26.125 63.3479 26.3829 63.8456 26.9069L64.5706 26.2181C63.8809 25.4921 63.0147 25.125 62.005 25.125V26.125ZM63.8638 26.925C64.3877 27.4228 64.6456 28.0254 64.6456 28.7656H65.6456C65.6456 27.7559 65.2785 26.8897 64.5525 26.2L63.8638 26.925ZM64.6456 28.7656C64.6456 29.5059 64.3877 30.1085 63.8638 30.6063L64.5525 31.3312C65.2785 30.6415 65.6456 29.7754 65.6456 28.7656H64.6456ZM63.8456 30.6244C63.3479 31.1483 62.7453 31.4062 62.005 31.4062V32.4062C63.0147 32.4062 63.8809 32.0392 64.5706 31.3131L63.8456 30.6244ZM62.005 31.4062H50.1925V32.4062H62.005V31.4062ZM50.1996 31.4063C48.1053 31.3764 46.4086 30.7956 45.0734 29.6926L44.4366 30.4636C45.9764 31.7357 47.9047 32.3736 50.1854 32.4062L50.1996 31.4063ZM45.0825 29.7003C43.7261 28.5248 42.7609 27.2266 42.1697 25.8077L41.2466 26.1923C41.9054 27.7734 42.9714 29.194 44.4275 30.456L45.0825 29.7003ZM42.1743 25.8192C41.6027 24.345 41.3175 22.8281 41.3175 21.2656H40.3175C40.3175 22.9531 40.6261 24.5925 41.2419 26.1808L42.1743 25.8192ZM41.3175 21.2656C41.3175 19.7718 41.6159 18.3057 42.2165 16.8642L41.2935 16.4796C40.6441 18.038 40.3175 19.6345 40.3175 21.2656H41.3175ZM42.2179 16.8608C42.8091 15.4124 43.7728 14.1172 45.1245 12.9758L44.4793 12.2117C43.0184 13.4453 41.9509 14.8688 41.2921 16.4829L42.2179 16.8608ZM45.1293 12.9716C46.4162 11.8563 48.3648 11.2164 51.0533 11.1247L51.0192 10.1253C48.2077 10.2211 46 10.8937 44.4744 12.2159L45.1293 12.9716ZM51.0363 11.125H70.7238V10.125H51.0363V11.125ZM70.7238 11.125C71.4727 11.125 72.0988 11.3741 72.6294 11.8781L73.3181 11.1531C72.5987 10.4696 71.7248 10.125 70.7238 10.125V11.125ZM72.6393 11.8873C73.159 12.355 73.4318 12.9439 73.4584 13.6897L74.4578 13.654C74.4219 12.6498 74.0385 11.8013 73.3082 11.144L72.6393 11.8873ZM73.4581 13.6719V29.4219H74.4581V13.6719H73.4581ZM73.4581 29.4219C73.4581 30.1538 73.1911 30.754 72.6383 31.2542L73.3092 31.9958C74.0689 31.3085 74.4581 30.44 74.4581 29.4219H73.4581ZM72.6393 31.2534C72.1101 31.7296 71.4807 31.9688 70.7238 31.9688V32.9688C71.7168 32.9688 72.5874 32.6454 73.3082 31.9966L72.6393 31.2534ZM70.7653 31.9705C69.9088 31.8991 69.3049 31.6374 68.8949 31.2336C68.4848 30.8297 68.2132 30.229 68.1275 29.3721L67.1325 29.4716C67.2343 30.4897 67.5721 31.3344 68.1932 31.9461C68.8144 32.5579 69.6637 32.8821 70.6822 32.967L70.7653 31.9705ZM92.4006 31.9062L92.3836 32.406C92.3893 32.4062 92.395 32.4062 92.4006 32.4062V31.9062ZM86.1663 29.9844L85.8388 30.3623L85.8437 30.3664L86.1663 29.9844ZM83.1194 25.9062L82.6564 26.0952L82.6578 26.0986L83.1194 25.9062ZM83.0725 16.5781L82.6096 16.3892L82.6076 16.3941L83.0725 16.5781ZM86.1194 12.5L86.442 12.882L86.4427 12.8814L86.1194 12.5ZM91.5569 10.625V10.1249L91.5497 10.1251L91.5569 10.625ZM111.573 11.5625L111.21 11.9069C111.216 11.9131 111.222 11.9191 111.228 11.925L111.573 11.5625ZM89.8225 17.6562L90.188 17.9974C90.1917 17.9935 90.1953 17.9895 90.1988 17.9855L89.8225 17.6562ZM88.8381 19.3438L88.3638 19.1856C88.3622 19.1904 88.3607 19.1952 88.3592 19.2001L88.8381 19.3438ZM88.8381 23.1875L88.3574 23.3249C88.36 23.3342 88.363 23.3435 88.3662 23.3527L88.8381 23.1875ZM89.8225 24.875L89.4462 25.2043C89.4497 25.2083 89.4533 25.2122 89.457 25.2162L89.8225 24.875ZM91.3694 25.625L91.3431 26.1243C91.3519 26.1248 91.3606 26.125 91.3694 26.125V25.625ZM111.573 26.5625L111.21 26.9069C111.216 26.9131 111.222 26.9191 111.228 26.925L111.573 26.5625ZM111.573 30.9688L111.228 30.6063C111.222 30.6121 111.216 30.6182 111.21 30.6244L111.573 30.9688ZM92.4177 31.4065C89.7267 31.3148 87.776 30.6893 86.4888 29.6024L85.8437 30.3664C87.369 31.6544 89.5746 32.3102 92.3836 32.406L92.4177 31.4065ZM86.4937 29.6065C85.1374 28.431 84.1721 27.1328 83.5809 25.7139L82.6578 26.0986C83.3166 27.6797 84.3826 29.1002 85.8388 30.3622L86.4937 29.6065ZM83.5823 25.7173C82.9803 24.2425 82.6819 22.7596 82.6819 21.2656H81.6819C81.6819 22.8966 82.0084 24.5075 82.6565 26.0952L83.5823 25.7173ZM82.6819 21.2656C82.6819 19.7032 82.967 18.2031 83.5374 16.7621L82.6076 16.3941C81.9905 17.9531 81.6819 19.5781 81.6819 21.2656H82.6819ZM83.5354 16.7671C84.1266 15.3187 85.0903 14.0234 86.442 12.882L85.7968 12.118C84.3359 13.3516 83.2684 14.7751 82.6096 16.3892L83.5354 16.7671ZM86.4427 12.8814C87.7779 11.7494 89.4729 11.1548 91.564 11.1249L91.5497 10.1251C89.2659 10.1577 87.3359 10.8131 85.796 12.1186L86.4427 12.8814ZM91.5569 11.125H109.369V10.125H91.5569V11.125ZM109.369 11.125C110.11 11.125 110.712 11.3829 111.21 11.9069L111.935 11.2181C111.245 10.4921 110.379 10.125 109.369 10.125V11.125ZM111.228 11.925C111.752 12.4228 112.01 13.0254 112.01 13.7656H113.01C113.01 12.7559 112.643 11.8897 111.917 11.2L111.228 11.925ZM112.01 13.7656C112.01 14.5065 111.751 15.1298 111.219 15.6621L111.926 16.3692C112.644 15.6515 113.01 14.7747 113.01 13.7656H112.01ZM111.219 15.6621C110.723 16.1577 110.118 16.4062 109.369 16.4062V17.4062C110.371 17.4062 111.234 17.061 111.926 16.3692L111.219 15.6621ZM109.369 16.4062H91.3694V17.4062H109.369V16.4062ZM91.3694 16.4062C90.6133 16.4062 89.966 16.7329 89.4462 17.327L90.1988 17.9855C90.554 17.5796 90.9379 17.4062 91.3694 17.4062V16.4062ZM89.457 17.3151C88.9667 17.8404 88.6034 18.4667 88.3638 19.1856L89.3125 19.5019C89.5103 18.9083 89.8033 18.4096 90.188 17.9974L89.457 17.3151ZM88.3592 19.2001C88.1583 19.8696 88.0569 20.543 88.0569 21.2188H89.0569C89.0569 20.6445 89.1429 20.0679 89.317 19.4874L88.3592 19.2001ZM88.0569 21.2188C88.0569 21.9233 88.1576 22.6257 88.3574 23.3249L89.3189 23.0501C89.1436 22.4368 89.0569 21.8267 89.0569 21.2188H88.0569ZM88.3662 23.3527C88.6061 24.0382 88.9668 24.6563 89.4462 25.2043L90.1988 24.5457C89.8032 24.0937 89.5076 23.5868 89.3101 23.0223L88.3662 23.3527ZM89.457 25.2162C89.9752 25.7714 90.6093 26.0857 91.3431 26.1243L91.3957 25.1257C90.9419 25.1018 90.5448 24.9161 90.188 24.5338L89.457 25.2162ZM91.3694 26.125H109.369V25.125H91.3694V26.125ZM109.369 26.125C110.11 26.125 110.712 26.3829 111.21 26.9069L111.935 26.2181C111.245 25.4921 110.379 25.125 109.369 25.125V26.125ZM111.228 26.925C111.752 27.4228 112.01 28.0254 112.01 28.7656H113.01C113.01 27.7559 112.643 26.8897 111.917 26.2L111.228 26.925ZM112.01 28.7656C112.01 29.5059 111.752 30.1085 111.228 30.6063L111.917 31.3312C112.643 30.6415 113.01 29.7754 113.01 28.7656H112.01ZM111.21 30.6244C110.712 31.1483 110.11 31.4062 109.369 31.4062V32.4062C110.379 32.4062 111.245 32.0392 111.935 31.3131L111.21 30.6244ZM109.369 31.4062H92.4006V32.4062H109.369V31.4062ZM130.484 3.5V3C130.478 3 130.471 3.00011 130.465 3.00034L130.484 3.5ZM132.734 4.39062L132.389 4.75326L132.399 4.76227L132.734 4.39062ZM133.718 6.54688H134.218C134.218 6.54093 134.218 6.53498 134.218 6.52903L133.718 6.54688ZM133.718 10.625H133.218C133.218 10.9011 133.442 11.125 133.718 11.125V10.625ZM151.906 11.5156L152.268 11.1712C152.262 11.1651 152.256 11.159 152.25 11.1531L151.906 11.5156ZM133.718 16.9062V16.4062C133.442 16.4062 133.218 16.6301 133.218 16.9062H133.718ZM133.718 17.8438L134.218 17.8559V17.8438H133.718ZM133.952 21.4062L133.46 21.4907C133.461 21.4962 133.462 21.5016 133.463 21.5071L133.952 21.4062ZM138.406 25.625L138.379 26.1243C138.388 26.1248 138.397 26.125 138.406 26.125V25.625ZM149.843 25.625L149.861 25.1253C149.855 25.1251 149.849 25.125 149.843 25.125V25.625ZM151.999 26.6094L151.628 26.944L151.637 26.9538L151.999 26.6094ZM152.89 28.8594L153.39 28.8779C153.39 28.8717 153.39 28.8655 153.39 28.8594H152.89ZM149.843 31.9062V32.4062C149.849 32.4062 149.855 32.4061 149.862 32.4059L149.843 31.9062ZM136.812 31.9062L136.783 32.4054C136.793 32.406 136.802 32.4062 136.812 32.4062V31.9062ZM131.374 29.7031L131.025 30.0607L131.033 30.0684L131.374 29.7031ZM128.327 24.6875L127.849 24.8319L127.851 24.8388L128.327 24.6875ZM127.39 18.4062H126.89L126.89 18.4133L127.39 18.4062ZM127.39 16.9062H127.89C127.89 16.6301 127.666 16.4062 127.39 16.4062V16.9062ZM119.796 15.9688L120.159 15.6244C120.153 15.6182 120.147 15.6121 120.141 15.6063L119.796 15.9688ZM127.39 10.625V11.125C127.666 11.125 127.89 10.9011 127.89 10.625H127.39ZM127.39 6.54688L126.89 6.52837C126.89 6.53454 126.89 6.5407 126.89 6.54688H127.39ZM128.327 4.4375L128.671 4.80061L128.681 4.79105L128.327 4.4375ZM130.484 4C131.233 4 131.859 4.24912 132.389 4.75313L133.078 4.02812C132.359 3.34463 131.485 3 130.484 3V4ZM132.399 4.76227C132.919 5.22999 133.192 5.8189 133.218 6.56472L134.218 6.52903C134.182 5.52485 133.799 4.67626 133.068 4.01898L132.399 4.76227ZM133.218 6.54688V10.625H134.218V6.54688H133.218ZM133.718 11.125H149.656V10.125H133.718V11.125ZM149.656 11.125C150.405 11.125 151.031 11.3741 151.561 11.8781L152.25 11.1531C151.531 10.4696 150.657 10.125 149.656 10.125V11.125ZM151.543 11.86C152.047 12.3905 152.296 13.0167 152.296 13.7656H153.296C153.296 12.7646 152.952 11.8907 152.268 11.1712L151.543 11.86ZM152.296 13.7656C152.296 14.5065 152.037 15.1298 151.505 15.6621L152.212 16.3692C152.93 15.6515 153.296 14.7747 153.296 13.7656H152.296ZM151.505 15.6621C151.01 16.1577 150.404 16.4062 149.656 16.4062V17.4062C150.657 17.4062 151.52 17.061 152.212 16.3692L151.505 15.6621ZM149.656 16.4062H133.718V17.4062H149.656V16.4062ZM133.218 16.9062V17.8438H134.218V16.9062H133.218ZM133.218 17.8316C133.186 19.1403 133.266 20.3606 133.46 21.4907L134.445 21.3218C134.264 20.2644 134.187 19.1097 134.218 17.8559L133.218 17.8316ZM133.463 21.5071C133.701 22.6643 134.246 23.6988 135.086 24.6053L135.819 23.9259C135.096 23.1449 134.641 22.2732 134.442 21.3054L133.463 21.5071ZM135.086 24.6053C135.959 25.5481 137.067 26.0552 138.379 26.1243L138.432 25.1257C137.369 25.0698 136.509 24.6706 135.819 23.9259L135.086 24.6053ZM138.406 26.125H149.843V25.125H138.406V26.125ZM149.825 26.1247C150.571 26.1513 151.16 26.4242 151.628 26.9439L152.371 26.2749C151.714 25.5446 150.865 25.1612 149.861 25.1253L149.825 26.1247ZM151.637 26.9538C152.141 27.4843 152.39 28.1104 152.39 28.8594H153.39C153.39 27.8583 153.045 26.9845 152.362 26.265L151.637 26.9538ZM152.39 28.8409C152.364 29.5593 152.103 30.1581 151.599 30.6621L152.306 31.3692C152.99 30.6856 153.354 29.847 153.39 28.8779L152.39 28.8409ZM151.599 30.6621C151.132 31.1295 150.551 31.3797 149.825 31.4066L149.862 32.4059C150.823 32.3703 151.648 32.0268 152.306 31.3692L151.599 30.6621ZM149.843 31.4062H136.812V32.4062H149.843V31.4062ZM136.84 31.4071C134.756 31.2879 133.058 30.5926 131.716 29.3379L131.033 30.0684C132.566 31.5012 134.493 32.2746 136.783 32.4054L136.84 31.4071ZM131.724 29.3456C130.379 28.0308 129.406 26.4309 128.804 24.5362L127.851 24.8388C128.499 26.8816 129.557 28.6254 131.025 30.0606L131.724 29.3456ZM128.806 24.5431C128.227 22.6223 127.921 20.5751 127.89 18.3992L126.89 18.4133C126.922 20.6749 127.241 22.8152 127.849 24.8319L128.806 24.5431ZM127.89 18.4062V16.9062H126.89V18.4062H127.89ZM127.39 16.4062H121.999V17.4062H127.39V16.4062ZM121.999 16.4062C121.259 16.4062 120.657 16.1483 120.159 15.6244L119.434 16.3131C120.123 17.0392 120.99 17.4062 121.999 17.4062V16.4062ZM120.141 15.6063C119.617 15.1085 119.359 14.5059 119.359 13.7656H118.359C118.359 14.7754 118.726 15.6415 119.452 16.3312L120.141 15.6063ZM119.359 13.7656C119.359 13.017 119.607 12.4117 120.103 11.9161L119.396 11.2089C118.704 11.9008 118.359 12.7642 118.359 13.7656H119.359ZM120.103 11.9161C120.635 11.3838 121.258 11.125 121.999 11.125V10.125C120.99 10.125 120.114 10.4912 119.396 11.2089L120.103 11.9161ZM121.999 11.125H127.39V10.125H121.999V11.125ZM127.89 10.625V6.54688H126.89V10.625H127.89ZM127.89 6.56538C127.916 5.84771 128.176 5.26978 128.671 4.80048L127.984 4.07452C127.292 4.73022 126.926 5.55854 126.89 6.52837L127.89 6.56538ZM128.681 4.79105C129.185 4.28709 129.784 4.02627 130.502 3.99966L130.465 3.00034C129.496 3.03623 128.657 3.40041 127.974 4.08395L128.681 4.79105ZM161.254 16.5312L161.717 16.7202L161.719 16.7153L161.254 16.5312ZM164.254 12.5L164.577 12.882L164.578 12.8814L164.254 12.5ZM169.692 10.625V10.1249L169.685 10.1251L169.692 10.625ZM189.52 11.5625L189.158 11.9069C189.163 11.9131 189.169 11.9191 189.176 11.925L189.52 11.5625ZM167.958 17.6562L168.323 17.9974C168.327 17.9935 168.33 17.9895 168.334 17.9855L167.958 17.6562ZM166.926 19.3438L166.459 19.1658C166.456 19.1723 166.454 19.179 166.452 19.1856L166.926 19.3438ZM166.598 29.4219L167.096 29.4716C167.097 29.4551 167.098 29.4385 167.098 29.4219H166.598ZM163.504 32.4688V32.9688C163.518 32.9688 163.532 32.9682 163.546 32.967L163.504 32.4688ZM161.208 31.625L160.863 31.9875C160.869 31.9934 160.876 31.9991 160.882 32.0046L161.208 31.625ZM160.27 21.2656V20.7656C159.994 20.7656 159.77 20.9895 159.77 21.2656H160.27ZM160.317 21.2656V21.7656C160.593 21.7656 160.817 21.5418 160.817 21.2656H160.317ZM161.719 16.7153C162.279 15.3022 163.225 14.0239 164.577 12.882L163.932 12.118C162.471 13.3511 161.418 14.7603 160.789 16.3472L161.719 16.7153ZM164.578 12.8814C165.913 11.7494 167.608 11.1548 169.699 11.1249L169.685 10.1251C167.401 10.1577 165.471 10.8131 163.931 12.1186L164.578 12.8814ZM169.692 11.125H187.317V10.125H169.692V11.125ZM187.317 11.125C188.057 11.125 188.66 11.3829 189.158 11.9069L189.883 11.2181C189.193 10.4921 188.327 10.125 187.317 10.125V11.125ZM189.176 11.925C189.7 12.4228 189.958 13.0254 189.958 13.7656H190.958C190.958 12.7559 190.59 11.8897 189.864 11.2L189.176 11.925ZM189.958 13.7656C189.958 14.5065 189.699 15.1298 189.166 15.6621L189.874 16.3692C190.591 15.6515 190.958 14.7747 190.958 13.7656H189.958ZM189.166 15.6621C188.671 16.1577 188.065 16.4062 187.317 16.4062V17.4062C188.318 17.4062 189.182 17.061 189.874 16.3692L189.166 15.6621ZM187.317 16.4062H169.504V17.4062H187.317V16.4062ZM169.504 16.4062C168.748 16.4062 168.101 16.7329 167.581 17.327L168.334 17.9855C168.689 17.5796 169.073 17.4062 169.504 17.4062V16.4062ZM167.592 17.3151C167.106 17.8355 166.73 18.4548 166.459 19.1658L167.393 19.5217C167.623 18.9202 167.934 18.4145 168.323 17.9974L167.592 17.3151ZM166.452 19.1856C166.219 19.8846 166.098 20.5632 166.098 21.2188H167.098C167.098 20.6868 167.196 20.1154 167.401 19.5019L166.452 19.1856ZM166.098 21.2188V29.4219H167.098V21.2188H166.098ZM166.101 29.3721C166.015 30.229 165.743 30.8297 165.333 31.2336C164.923 31.6374 164.319 31.8991 163.463 31.9705L163.546 32.967C164.564 32.8821 165.414 32.5579 166.035 31.9461C166.656 31.3344 166.994 30.4897 167.096 29.4716L166.101 29.3721ZM163.504 31.9688C162.747 31.9688 162.097 31.7291 161.533 31.2454L160.882 32.0046C161.63 32.6459 162.512 32.9688 163.504 32.9688V31.9688ZM161.552 31.2625C161.028 30.7647 160.77 30.1621 160.77 29.4219H159.77C159.77 30.4316 160.137 31.2978 160.863 31.9875L161.552 31.2625ZM160.77 29.4219V21.2656H159.77V29.4219H160.77ZM160.27 21.7656H160.317V20.7656H160.27V21.7656ZM160.817 21.2656C160.817 19.7066 161.116 18.1926 161.717 16.7202L160.791 16.3423C160.142 17.9324 159.817 19.5747 159.817 21.2656H160.817ZM201.212 10.1562L201.231 9.65659C201.225 9.65636 201.219 9.65625 201.212 9.65625V10.1562ZM203.369 11.0938L203.015 11.4474L203.025 11.4567L203.369 11.0938ZM204.306 13.2031H204.806C204.806 13.197 204.806 13.1908 204.806 13.1846L204.306 13.2031ZM204.306 29.4219L204.804 29.4716C204.805 29.4551 204.806 29.4385 204.806 29.4219H204.306ZM201.212 32.4688V32.9688C201.226 32.9688 201.24 32.9682 201.254 32.967L201.212 32.4688ZM198.916 31.625L198.571 31.9875C198.577 31.9934 198.584 31.9991 198.59 32.0046L198.916 31.625ZM197.978 13.2031L197.478 13.1853C197.478 13.1912 197.478 13.1972 197.478 13.2031H197.978ZM198.962 11.0469L199.297 11.4187L199.307 11.4094L198.962 11.0469ZM201.194 10.6559C201.912 10.6825 202.511 10.9433 203.015 11.4473L203.722 10.7402C203.039 10.0567 202.2 9.69249 201.231 9.65659L201.194 10.6559ZM203.025 11.4567C203.52 11.926 203.78 12.504 203.807 13.2216L204.806 13.1846C204.77 12.2148 204.405 11.3865 203.713 10.7308L203.025 11.4567ZM203.806 13.2031V29.4219H204.806V13.2031H203.806ZM203.809 29.3721C203.723 30.229 203.451 30.8297 203.041 31.2336C202.631 31.6374 202.027 31.8991 201.171 31.9705L201.254 32.967C202.273 32.8821 203.122 32.5579 203.743 31.9461C204.364 31.3344 204.702 30.4897 204.804 29.4716L203.809 29.3721ZM201.212 31.9688C200.455 31.9688 199.805 31.7291 199.241 31.2454L198.59 32.0046C199.338 32.6459 200.22 32.9688 201.212 32.9688V31.9688ZM199.26 31.2625C198.736 30.7647 198.478 30.1621 198.478 29.4219H197.478C197.478 30.4316 197.845 31.2978 198.571 31.9875L199.26 31.2625ZM198.478 29.4219V13.2031H197.478V29.4219H198.478ZM198.478 13.221C198.504 12.4752 198.777 11.8862 199.297 11.4185L198.628 10.6752C197.898 11.3325 197.514 12.1811 197.478 13.1853L198.478 13.221ZM199.307 11.4094C199.837 10.9054 200.464 10.6562 201.212 10.6562V9.65625C200.211 9.65625 199.338 10.0009 198.618 10.6844L199.307 11.4094ZM197.775 4.0625C197.775 3.35423 198.069 2.73902 198.72 2.19661L198.08 1.42839C197.231 2.13598 196.775 3.02077 196.775 4.0625H197.775ZM198.72 2.19661C199.372 1.65329 200.162 1.375 201.119 1.375V0.375C199.95 0.375 198.928 0.721706 198.08 1.42839L198.72 2.19661ZM201.119 1.375C202.075 1.375 202.865 1.65329 203.517 2.19661L204.158 1.42839C203.31 0.721706 202.287 0.375 201.119 0.375V1.375ZM203.517 2.19661C204.168 2.73902 204.462 3.35423 204.462 4.0625H205.462C205.462 3.02077 205.007 2.13598 204.158 1.42839L203.517 2.19661ZM204.462 4.0625C204.462 4.80777 204.163 5.4369 203.517 5.97526L204.158 6.74349C205.012 6.03185 205.462 5.12973 205.462 4.0625H204.462ZM203.517 5.97526C202.865 6.51858 202.075 6.79688 201.119 6.79688V7.79688C202.287 7.79688 203.31 7.45017 204.158 6.74349L203.517 5.97526ZM201.119 6.79688C200.162 6.79688 199.372 6.51858 198.72 5.97526L198.08 6.74349C198.928 7.45017 199.95 7.79688 201.119 7.79688V6.79688ZM198.72 5.97526C198.074 5.4369 197.775 4.80777 197.775 4.0625H196.775C196.775 5.12973 197.226 6.03185 198.08 6.74349L198.72 5.97526ZM241.733 15.3125L242.055 15.695L242.057 15.6935L241.733 15.3125ZM218.155 16.8125L218.545 17.1248C218.554 17.1136 218.563 17.1019 218.571 17.0898L218.155 16.8125ZM218.155 17.75L217.739 18.0273C217.747 18.0394 217.756 18.0511 217.765 18.0623L218.155 17.75ZM218.717 18.2188L218.452 18.6427C218.466 18.6511 218.48 18.6589 218.494 18.666L218.717 18.2188ZM219.702 18.4531L219.664 18.9517C219.676 18.9526 219.689 18.9531 219.702 18.9531V18.4531ZM235.03 18.4531L235.038 17.9531H235.03V18.4531ZM239.905 19.625L239.652 20.0566L239.66 20.0611L239.905 19.625ZM242.624 22.2031L242.182 22.4377C242.185 22.4433 242.188 22.4488 242.191 22.4542L242.624 22.2031ZM242.624 28.1094L243.056 28.3605L243.06 28.3545L242.624 28.1094ZM239.858 30.6875L240.107 31.121L240.111 31.119L239.858 30.6875ZM235.03 31.7656V31.2656C235.015 31.2656 235 31.2663 234.985 31.2677L235.03 31.7656ZM213.842 31.0625L213.509 31.4351C213.516 31.4412 213.523 31.4472 213.53 31.4529L213.842 31.0625ZM213.889 27.1719L213.567 26.7894L213.566 26.7909L213.889 27.1719ZM235.405 26.4219L235.438 25.923C235.427 25.9222 235.416 25.9219 235.405 25.9219V26.4219ZM236.53 26.2344L236.306 25.7872C236.3 25.7904 236.294 25.7938 236.287 25.7973L236.53 26.2344ZM237.233 24.6875L236.809 24.9525C236.815 24.9612 236.82 24.9698 236.826 24.9781L237.233 24.6875ZM236.53 24.125L236.287 24.5621C236.306 24.5723 236.325 24.5814 236.344 24.5892L236.53 24.125ZM235.405 23.8438L235.438 23.3449C235.427 23.3441 235.416 23.3438 235.405 23.3438V23.8438ZM220.03 23.8438L220.021 24.3438H220.03V23.8438ZM215.53 22.7188L215.263 23.1416L215.271 23.1465L215.53 22.7188ZM212.999 14.375L212.56 14.1346L212.558 14.1397L212.999 14.375ZM215.53 11.8906L215.786 12.3204L215.789 12.3184L215.53 11.8906ZM220.03 10.7188L220.047 11.2185C220.058 11.2181 220.069 11.2174 220.08 11.2163L220.03 10.7188ZM241.733 11.4688L241.4 11.8414C241.407 11.8475 241.414 11.8534 241.421 11.8592L241.733 11.4688ZM242.171 13.3438C242.171 13.9701 241.929 14.4899 241.409 14.9315L242.057 15.6935C242.787 15.0726 243.171 14.2799 243.171 13.3438H242.171ZM241.411 14.93C240.919 15.3445 240.303 15.5625 239.53 15.5625V16.5625C240.507 16.5625 241.36 16.2805 242.055 15.695L241.411 14.93ZM239.53 15.5625H219.702V16.5625H239.53V15.5625ZM219.702 15.5625C219.236 15.5625 218.807 15.6516 218.452 15.8729L218.982 16.7209C219.128 16.6297 219.355 16.5625 219.702 16.5625V15.5625ZM218.452 15.8729C218.16 16.0557 217.913 16.2734 217.739 16.5352L218.571 17.0898C218.647 16.9766 218.775 16.8506 218.982 16.7209L218.452 15.8729ZM217.765 16.5002C217.608 16.6954 217.467 16.9454 217.467 17.2344H218.467C218.467 17.256 218.462 17.259 218.471 17.2382C218.481 17.2167 218.502 17.179 218.545 17.1248L217.765 16.5002ZM217.467 17.2344C217.467 17.524 217.582 17.7923 217.739 18.0273L218.571 17.4727C218.478 17.3327 218.467 17.2572 218.467 17.2344H217.467ZM217.765 18.0623C217.937 18.2782 218.175 18.4694 218.452 18.6427L218.982 17.7948C218.76 17.6556 218.623 17.5343 218.545 17.4377L217.765 18.0623ZM218.494 18.666C218.822 18.8299 219.22 18.9175 219.664 18.9517L219.74 17.9546C219.371 17.9262 219.113 17.8576 218.941 17.7715L218.494 18.666ZM219.702 18.9531H235.03V17.9531H219.702V18.9531ZM235.022 18.9531C236.932 18.9834 238.466 19.3619 239.652 20.0565L240.158 19.1935C238.782 18.3881 237.066 17.9854 235.038 17.9532L235.022 18.9531ZM239.66 20.0611C240.883 20.7467 241.707 21.5442 242.182 22.4377L243.065 21.9685C242.478 20.8621 241.49 19.9408 240.15 19.1889L239.66 20.0611ZM242.191 22.4542C242.715 23.3561 242.967 24.2547 242.967 25.1562H243.967C243.967 24.0578 243.657 22.9877 243.056 21.9521L242.191 22.4542ZM242.967 25.1562C242.967 26.0245 242.716 26.9252 242.188 27.8642L243.06 28.3545C243.656 27.2935 243.967 26.2255 243.967 25.1562H242.967ZM242.191 27.8583C241.684 28.732 240.836 29.5359 239.606 30.256L240.111 31.119C241.443 30.3391 242.438 29.4243 243.056 28.3604L242.191 27.8583ZM239.609 30.254C238.457 30.9161 236.942 31.2656 235.03 31.2656V32.2656C237.056 32.2656 238.759 31.8964 240.107 31.121L239.609 30.254ZM234.985 31.2677C234.643 31.2988 234.412 31.3125 234.28 31.3125V32.3125C234.461 32.3125 234.73 32.295 235.075 32.2636L234.985 31.2677ZM234.28 31.3125H216.092V32.3125H234.28V31.3125ZM216.092 31.3125C215.32 31.3125 214.683 31.0944 214.155 30.6721L213.53 31.4529C214.252 32.0306 215.115 32.3125 216.092 32.3125V31.3125ZM214.176 30.6899C213.681 30.2468 213.452 29.7387 213.452 29.1406H212.452C212.452 30.0426 212.817 30.8157 213.509 31.4351L214.176 30.6899ZM213.452 29.1406C213.452 28.5142 213.694 27.9945 214.213 27.5528L213.566 26.7909C212.835 27.4117 212.452 28.2045 212.452 29.1406H213.452ZM214.211 27.5543C214.704 27.1399 215.319 26.9219 216.092 26.9219V25.9219C215.116 25.9219 214.263 26.2038 213.567 26.7894L214.211 27.5543ZM216.092 26.9219H235.405V25.9219H216.092V26.9219ZM235.372 26.9208C235.895 26.9556 236.377 26.8913 236.773 26.6715L236.287 25.7973C236.12 25.8899 235.853 25.9506 235.438 25.923L235.372 26.9208ZM236.754 26.6816C237.103 26.5068 237.402 26.297 237.617 26.0388L236.849 25.3987C236.752 25.5155 236.582 25.6495 236.306 25.7872L236.754 26.6816ZM237.617 26.0388C237.825 25.789 237.967 25.4921 237.967 25.1562H236.967C236.967 25.1954 236.953 25.2735 236.849 25.3987L237.617 26.0388ZM237.967 25.1562C237.967 24.9904 237.905 24.8426 237.856 24.7451C237.801 24.6348 237.726 24.5175 237.64 24.3969L236.826 24.9781C236.896 25.0763 236.939 25.1465 236.962 25.1924C236.973 25.2148 236.976 25.2245 236.976 25.2234C236.975 25.2223 236.973 25.2164 236.972 25.2061C236.97 25.1959 236.967 25.1788 236.967 25.1562H237.967ZM237.657 24.4225C237.437 24.07 237.112 23.8194 236.716 23.6608L236.344 24.5892C236.573 24.6806 236.717 24.805 236.809 24.9525L237.657 24.4225ZM236.773 23.6879C236.404 23.4833 235.949 23.3789 235.438 23.3449L235.372 24.3426C235.798 24.3711 236.093 24.4542 236.287 24.5621L236.773 23.6879ZM235.405 23.3438H220.03V24.3438H235.405V23.3438ZM220.039 23.3438C218.288 23.3136 216.881 22.9521 215.789 22.291L215.271 23.1465C216.554 23.9229 218.147 24.3114 220.021 24.3437L220.039 23.3438ZM215.797 22.296C214.663 21.5801 213.892 20.7812 213.443 19.9113L212.554 20.3699C213.105 21.4375 214.021 22.3574 215.263 23.1415L215.797 22.296ZM213.443 19.9113C212.975 19.0045 212.749 18.1138 212.749 17.2344H211.749C211.749 18.2924 212.022 19.3393 212.554 20.3699L213.443 19.9113ZM212.749 17.2344C212.749 16.3554 212.975 15.4825 213.44 14.6103L212.558 14.1397C212.023 15.1425 211.749 16.1758 211.749 17.2344H212.749ZM213.437 14.6154C213.917 13.7404 214.689 12.9722 215.786 12.3204L215.274 11.4609C214.058 12.1841 213.143 13.0721 212.56 14.1346L213.437 14.6154ZM215.789 12.3184C216.884 11.6554 218.295 11.2789 220.047 11.2185L220.013 10.219C218.14 10.2836 216.551 10.6884 215.271 11.4629L215.789 12.3184ZM220.08 11.2163C220.389 11.1854 220.603 11.1719 220.733 11.1719V10.1719C220.551 10.1719 220.296 10.1896 219.98 10.2212L220.08 11.2163ZM220.733 11.1719H239.53V10.1719H220.733V11.1719ZM239.53 11.1719C240.295 11.1719 240.907 11.4005 241.4 11.8414L242.067 11.0961C241.372 10.4745 240.515 10.1719 239.53 10.1719V11.1719ZM241.421 11.8592C241.936 12.2716 242.171 12.757 242.171 13.3438H243.171C243.171 12.4305 242.78 11.6659 242.045 11.0783L241.421 11.8592Z" fill="#AADDFF"/>
</svg>
